<svg width="43" height="43" viewBox="0 0 43 43" fill="none" xmlns="http://www.w3.org/2000/svg">
<path d="M14.7812 14.7812C15.1376 14.7812 15.4794 14.9228 15.7314 15.1748C15.9834 15.4268 16.125 15.7686 16.125 16.125V32.25C16.125 32.6064 15.9834 32.9482 15.7314 33.2002C15.4794 33.4522 15.1376 33.5938 14.7812 33.5938C14.4249 33.5938 14.0831 33.4522 13.8311 33.2002C13.5791 32.9482 13.4375 32.6064 13.4375 32.25V16.125C13.4375 15.7686 13.5791 15.4268 13.8311 15.1748C14.0831 14.9228 14.4249 14.7812 14.7812 14.7812ZM21.5 14.7812C21.8564 14.7812 22.1982 14.9228 22.4502 15.1748C22.7022 15.4268 22.8438 15.7686 22.8438 16.125V32.25C22.8438 32.6064 22.7022 32.9482 22.4502 33.2002C22.1982 33.4522 21.8564 33.5938 21.5 33.5938C21.1436 33.5938 20.8018 33.4522 20.5498 33.2002C20.2978 32.9482 20.1562 32.6064 20.1562 32.25V16.125C20.1562 15.7686 20.2978 15.4268 20.5498 15.1748C20.8018 14.9228 21.1436 14.7812 21.5 14.7812ZM29.5625 16.125C29.5625 15.7686 29.4209 15.4268 29.1689 15.1748C28.9169 14.9228 28.5751 14.7812 28.2188 14.7812C27.8624 14.7812 27.5206 14.9228 27.2686 15.1748C27.0166 15.4268 26.875 15.7686 26.875 16.125V32.25C26.875 32.6064 27.0166 32.9482 27.2686 33.2002C27.5206 33.4522 27.8624 33.5938 28.2188 33.5938C28.5751 33.5938 28.9169 33.4522 29.1689 33.2002C29.4209 32.9482 29.5625 32.6064 29.5625 32.25V16.125Z" fill="black"/>
<path fill-rule="evenodd" clip-rule="evenodd" d="M38.9688 8.0625C38.9688 8.77527 38.6856 9.45885 38.1816 9.96285C37.6776 10.4669 36.994 10.75 36.2812 10.75H34.9375V34.9375C34.9375 36.363 34.3712 37.7302 33.3632 38.7382C32.3552 39.7462 30.988 40.3125 29.5625 40.3125H13.4375C12.012 40.3125 10.6448 39.7462 9.6368 38.7382C8.62879 37.7302 8.0625 36.363 8.0625 34.9375V10.75H6.71875C6.00598 10.75 5.3224 10.4669 4.8184 9.96285C4.3144 9.45885 4.03125 8.77527 4.03125 8.0625V5.375C4.03125 4.66223 4.3144 3.97865 4.8184 3.47465C5.3224 2.97065 6.00598 2.6875 6.71875 2.6875H16.125C16.125 1.97473 16.4081 1.29115 16.9122 0.787151C17.4162 0.283147 18.0997 0 18.8125 0L24.1875 0C24.9003 0 25.5838 0.283147 26.0878 0.787151C26.5919 1.29115 26.875 1.97473 26.875 2.6875H36.2812C36.994 2.6875 37.6776 2.97065 38.1816 3.47465C38.6856 3.97865 38.9688 4.66223 38.9688 5.375V8.0625ZM11.0671 10.75L10.75 10.9086V34.9375C10.75 35.6503 11.0331 36.3338 11.5372 36.8378C12.0412 37.3419 12.7247 37.625 13.4375 37.625H29.5625C30.2753 37.625 30.9588 37.3419 31.4628 36.8378C31.9669 36.3338 32.25 35.6503 32.25 34.9375V10.9086L31.9329 10.75H11.0671ZM6.71875 8.0625V5.375H36.2812V8.0625H6.71875Z" fill="black"/>
</svg>
