<svg width="16" height="16" viewBox="0 0 16 16" fill="none" xmlns="http://www.w3.org/2000/svg">
<path fill-rule="evenodd" clip-rule="evenodd" d="M15.3357 0.3051C14.9572 -0.092097 14.3436 -0.0920972 13.9651 0.3051L8.13251 6.42605L2.30004 0.305199C1.92156 -0.0919985 1.30791 -0.0919983 0.929431 0.305199C0.550948 0.702396 0.550948 1.34638 0.929431 1.74358L6.7619 7.86442L0.929441 13.9853C0.550957 14.3825 0.550957 15.0264 0.929441 15.4236C1.30792 15.8208 1.92157 15.8208 2.30005 15.4236L8.13251 9.3028L13.9651 15.4237C14.3435 15.8209 14.9572 15.8209 15.3357 15.4237C15.7142 15.0265 15.7142 14.3826 15.3357 13.9854L9.50312 7.86442L15.3357 1.74348C15.7142 1.34628 15.7142 0.702297 15.3357 0.3051Z" fill="#959595"/>
</svg>
